# xmcd
#
# Track frame offsets:
#	150
#	23310
#	48425
#
# Disc length: 827 seconds
#
# Revision: 1
# Processed by: cddbd v1.5.1PL0 Copyright (c) Steve Scherf et al.
# Submitted via: CDex 1.50Beta5
#
DISCID=15033903
DTITLE=Sing Like Talking - Single
DYEAR=1900
DGENRE=Pop
TTITLE0=Keeps Me Runnin'
TTITLE1=心の扉
TTITLE2=Waltz #1
EXTD=
EXTT0=
EXTT1=
EXTT2=
PLAYORDER=
